Coordinates
version=1
nRows=7
nColumns=63
inDegrees=yes

Units are S.I. units (second, meters, Newtons, ...)
If the header above contains a line with 'inDegrees', this indicates whether rotational values are in degrees (yes) or radians (no).

endheader
time	pelvis_tilt	pelvis_list	pelvis_rotation	pelvis_tx	pelvis_ty	pelvis_tz	hip_flexion_r	hip_adduction_r	hip_rotation_r	knee_angle_r	knee_angle_r_beta	ankle_angle_r	subtalar_angle_r	mtp_angle_r	hip_flexion_l	hip_adduction_l	hip_rotation_l	knee_angle_l	knee_angle_l_beta	ankle_angle_l	subtalar_angle_l	mtp_angle_l	L5_S1_Flex_Ext	L5_S1_Lat_Bending	L5_S1_axial_rotation	L4_L5_Flex_Ext	L4_L5_Lat_Bending	L4_L5_axial_rotation	L3_L4_Flex_Ext	L3_L4_Lat_Bending	L3_L4_axial_rotation	L2_L3_Flex_Ext	L2_L3_Lat_Bending	L2_L3_axial_rotation	L1_L2_Flex_Ext	L1_L2_Lat_Bending	L1_L2_axial_rotation	L1_T12_Flex_Ext	L1_T12_Lat_Bending	L1_T12_axial_rotation	Abs_r3	Abs_r2	Abs_r1	Abs_t1	Abs_t2	neck_flexion	neck_bending	neck_rotation	arm_flex_r	arm_add_r	arm_rot_r	elbow_flex_r	pro_sup_r	wrist_flex_r	wrist_dev_r	arm_flex_l	arm_add_l	arm_rot_l	elbow_flex_l	pro_sup_l	wrist_flex_l	wrist_dev_l
      0.00800000	    -54.00208311	     -1.22656937	     -4.33534901	     -0.25319236	      1.02179164	      0.01997996	    126.85814079	     -0.09800272	      1.26476230	    111.89728055	      1.95297597	     18.60804527	     -5.26395863	      0.00000000	     87.42750959	    -10.57489410	     -2.86301656	     55.44704741	      0.96773354	      5.74795755	      2.42426261	      0.00000000	     -0.07767778	      0.29615907	      0.52780435	     -0.14425540	      0.39389156	      0.56079212	     -0.12761682	      0.72008116	      0.56079212	     -0.08877793	      0.72008116	      0.46182880	     -0.07213158	      0.60392758	      0.42884103	     -0.04438508	      0.45875040	      0.39585326	     -0.55484460	      3.35021064	      2.93548944	      0.00000000	      0.00000000	     -0.00000000	      0.00000000	      0.00000000	     78.54295706	    -10.49646160	     34.60477638	     23.81810372	     29.34072506	      0.00000000	      5.57974995	     69.68639834	    -19.25729139	     24.07949666	     38.80835745	     39.13420454	      0.00000000	      5.57974995
      0.01700000	    -54.18415760	     -1.52456669	     -3.68507296	     -0.25569673	      1.02199040	      0.01875925	    126.77736547	     -0.68065770	      1.22130932	    107.55410289	      1.87717322	     18.41755181	     -4.63407811	      0.00000000	     89.13365287	    -10.27399998	     -1.93189919	     61.33926233	      1.07057209	      5.70535941	      1.74846383	      0.00000000	     -0.07584972	      0.30735596	      0.43046321	     -0.14086051	      0.40878343	      0.45736716	     -0.12461350	      0.74730529	      0.45736716	     -0.08668864	      0.74730529	      0.37665531	     -0.07043405	      0.62676028	      0.34975136	     -0.04334053	      0.47609439	      0.32284741	     -0.54178695	      3.47687215	      2.39410726	      0.00000000	      0.00000000	     -0.00000000	      0.00000000	      0.00000000	     78.77716941	    -10.77602510	     34.59546852	     23.82217012	     29.39691351	      0.00000000	      5.56260281	     70.40652254	    -18.76733170	     24.30397199	     38.08691453	     39.20805079	      0.00000000	      5.56260281
      0.02500000	    -54.21345139	     -1.46604041	     -3.30058551	     -0.25620727	      1.02188694	      0.01794370	    126.42347998	     -0.99375767	      1.39619259	    105.91058877	      1.84848849	     18.40539666	     -4.44831105	      0.00000000	     89.74437571	     -9.82777253	     -1.53305268	     63.36852478	      1.10598940	      5.74746597	      1.64051177	      0.00000000	     -0.07647678	      0.29560587	      0.35396639	     -0.14202503	      0.39315580	      0.37608929	     -0.12564370	      0.71873610	      0.37608929	     -0.08740531	      0.71873610	      0.30972060	     -0.07101634	      0.60279948	      0.28759770	     -0.04369883	      0.45789349	      0.26547480	     -0.54626598	      3.34395267	      1.96865490	      0.00000000	      0.00000000	     -0.00000000	      0.00000000	      0.00000000	     78.80085420	    -10.78667557	     34.64289712	     23.92715171	     29.40181996	      0.00000000	      5.55833760	     70.51859161	    -18.75926102	     24.31880905	     38.07680992	     39.21840161	      0.00000000	      5.55833760
      0.03300000	    -54.29683514	     -1.87025472	     -3.13182947	     -0.25695015	      1.02194613	      0.01692169	    125.76783718	     -1.44467842	      1.05689096	    103.75480373	      1.81086294	     18.73287159	     -3.70155936	      0.00000000	     90.74477746	     -9.56435491	     -0.43272814	     65.86918655	      1.14963418	      5.17964613	      1.64865031	      0.00000000	     -0.07834105	      0.34764673	      0.33171933	     -0.14548716	      0.46237015	      0.35245179	     -0.12870651	      0.84526826	      0.35245179	     -0.08953599	      0.84526826	      0.29025441	     -0.07274750	      0.70892122	      0.26952195	     -0.04476408	      0.53850479	      0.24878950	     -0.55958229	      3.93264936	      1.84492338	      0.00000000	      0.00000000	     -0.00000000	      0.00000000	      0.00000000	     78.99971814	    -10.94105082	     34.74350498	     23.97744431	     29.40650153	      0.00000000	      5.54415772	     70.57985956	    -18.57637660	     24.39363898	     38.07589511	     39.25554549	      0.00000000	      5.54415772
      0.04200000	    -54.35654518	     -2.04033794	     -2.75831636	     -0.25767384	      1.02181333	      0.01570558	    125.02731324	     -1.91719854	      1.07765492	    101.37153480	      1.76926705	     18.90976853	     -2.91265494	      0.00000000	     91.76151313	     -9.01881712	      0.51784815	     68.64751590	      1.19812518	      5.03673087	      1.75859085	      0.00000000	     -0.07780075	      0.36751561	      0.26773237	     -0.14448377	      0.48879577	      0.28446564	     -0.12781885	      0.89357746	      0.28446564	     -0.08891847	      0.89357746	      0.23426582	     -0.07224577	      0.74943784	      0.21753255	     -0.04445535	      0.56928169	      0.20079928	     -0.55572296	      4.15741013	      1.48904712	      0.00000000	      0.00000000	     -0.00000000	      0.00000000	      0.00000000	     79.14699388	    -11.05931778	     34.92213720	     24.00792472	     29.42366204	      0.00000000	      5.52656915	     70.64159122	    -18.41770897	     24.26178762	     38.11099117	     39.27166306	      0.00000000	      5.52656915
      0.05000000	    -54.37604775	     -1.86999800	     -2.21688980	     -0.25839446	      1.02155212	      0.01450445	    124.23084521	     -2.30980265	      1.50425676	     98.80620681	      1.72449363	     18.63067745	     -2.59153587	      0.00000000	     92.74493021	     -8.24729076	      1.17194373	     71.61639765	      1.24994194	      5.07491776	      1.86729823	      0.00000000	     -0.07818291	      0.33976495	      0.16684652	     -0.14519349	      0.45188738	      0.17727442	     -0.12844671	      0.82610450	      0.17727442	     -0.08935525	      0.82610450	      0.14599070	     -0.07260065	      0.69284868	      0.13556279	     -0.04467372	      0.52629591	      0.12513489	     -0.55845273	      3.84348906	      0.92795026	      0.00000000	      0.00000000	     -0.00000000	      0.00000000	      0.00000000	     79.16395568	    -11.08890588	     34.95035284	     24.08428862	     29.42195453	      0.00000000	      5.52121484	     70.79357186	    -18.36359702	     24.23610828	     38.14469328	     39.27896962	      0.00000000	      5.52121484
      0.05800000	    -54.43938605	     -2.06332778	     -1.89744174	     -0.25936114	      1.02135306	      0.01325402	    123.16318698	     -2.73602603	      1.44811342	     95.84352797	      1.67278513	     18.43146967	     -2.06076353	      0.00000000	     94.06856837	     -7.67946841	      2.28394697	     74.92090234	      1.30761642	      4.73304896	      2.33629069	      0.00000000	     -0.07889216	      0.36326792	      0.11917749	     -0.14651063	      0.48314633	      0.12662608	     -0.12961193	      0.88324961	      0.12662608	     -0.09016585	      0.88324961	      0.10428030	     -0.07325926	      0.74077594	      0.09683171	     -0.04507898	      0.56270200	      0.08938312	     -0.56351880	      4.10935933	      0.66282945	      0.00000000	      0.00000000	     -0.00000000	      0.00000000	      0.00000000	     79.31084178	    -11.24546939	     34.92437122	     24.16060803	     29.40263755	      0.00000000	      5.51143575	     70.92850134	    -18.20125099	     24.31988784	     38.17915354	     39.30980852	      0.00000000	      5.51143575
